<?xml version="1.0" encoding="UTF-8"?>
<svg id="Capa_1" data-name="Capa 1" xmlns="http://www.w3.org/2000/svg" viewBox="0 0 966.97 590.5">
  <defs>
    <style>
      .cls-1 {
        fill: #ee8316;
      }

      .cls-2 {
        fill: #645d56;
      }

      .cls-3 {
        fill: #f6af5c;
      }

      .cls-4 {
        fill: #5275b8;
      }

      .cls-5 {
        fill: #334c9b;
      }

      .cls-6 {
        fill: #eb7115;
      }

      .cls-7 {
        fill: #242c5a;
      }

      .cls-8 {
        fill: #ef8f03;
      }
    </style>
  </defs>
  <g>
    <g>
      <g>
        <path class="cls-5" d="M909.9,516.1l-57.33,56.09c-7.92,7.74-20.75,7.74-28.67,0h0c-7.92-7.74-7.92-20.3,0-28.04l57.33-56.09c7.92-7.74,20.75-7.74,28.67,0h0c7.92,7.74,7.92,20.3,0,28.04Z"/>
        <path class="cls-1" d="M881.23,516.1l-57.33-56.09c-7.92-7.74-7.92-20.3,0-28.04h0c7.92-7.74,20.75-7.74,28.67,0l57.33,56.09c7.92,7.74,7.92,20.3,0,28.04h0c-7.92,7.74-20.75,7.74-28.67,0Z"/>
        <path class="cls-3" d="M852.57,460.01c-7.92,7.74-20.75,7.74-28.67,0-7.92-7.74-7.92-20.3,0-28.04,7.92-7.74,20.75-7.74,28.67,0,7.92,7.74,7.92,20.3,0,28.04Z"/>
        <path class="cls-6" d="M909.9,516.1c-7.92,7.74-20.75,7.74-28.67,0-7.92-7.74-7.92-20.3,0-28.04,7.92-7.74,20.75-7.74,28.67,0,7.92,7.74,7.92,20.3,0,28.04Z"/>
        <ellipse class="cls-4" cx="838.48" cy="558.3" rx="20.27" ry="19.83"/>
      </g>
      <g>
        <g>
          <path class="cls-7" d="M423.56,524.6c-13.27,0-24.28-5.13-24.28-26.05v-8.17c0-22.09,12.49-25.98,24.51-25.98,8.51,0,16.86,1.4,18.66,1.94v8.32c-3.75-.31-12.8-.78-16.78-.78-9.45,0-15.54,2.1-15.54,16.49v8.17c0,13.22,4.84,16.57,14.21,16.57,2.89,0,5.78-.08,7.81-.23v-22.32h10.38v30.25c-3.2.7-10.62,1.79-18.97,1.79Z"/>
          <path class="cls-7" d="M463.37,490.53v32.82h-10.23v-43.79h9.76v3.58c4.14-3.66,9.52-4.67,14.99-4.67v9.41c-5.31,0-11.16,1.09-14.52,2.64Z"/>
          <path class="cls-7" d="M513.1,523.35v-3.5c-5.23,2.8-10.15,4.67-15.22,4.67-11.48,0-13.19-8.09-13.19-17.11v-27.84h10.23v27.84c0,6.22,1.17,8.48,6.32,8.48,2.97,0,6.79-1.17,11.48-2.96v-33.37h10.3v43.79h-9.91Z"/>
          <path class="cls-7" d="M553.38,524.44c-2.73,0-6.48-.39-8.74-.93v15.87h-10.23v-59.81h9.6v2.88c3.98-2.72,8.59-3.97,12.88-3.97,9.84,0,15.85,5.52,15.85,20.61v4.04c0,16.25-7.88,21.31-19.36,21.31ZM562.52,499.09c0-9.18-2.73-11.82-8.43-11.82-2.81,0-5.31.47-9.52,2.33v25.43c2.97.54,5.7.86,8.12.86,6.25,0,9.84-2.02,9.84-12.75v-4.04Z"/>
          <path class="cls-7" d="M600.53,524.52c-12.8,0-19.83-6.53-19.83-20.38v-5.37c0-13.77,7.03-20.3,19.83-20.3s19.83,6.53,19.83,20.3v5.37c0,13.84-7.03,20.38-19.83,20.38ZM610.14,498.78c0-8.4-2.89-11.51-9.6-11.51s-9.6,3.11-9.6,11.51v5.37c0,8.4,2.89,11.59,9.6,11.59s9.6-3.19,9.6-11.59v-5.37Z"/>
        </g>
        <g>
          <path class="cls-7" d="M661.46,523.2l-20.45-41.45c-1.4-2.88-3.2-6.38-4.68-9.8h-.16c.23,3.81.39,8.01.39,12.05v39.2h-6.71v-57.79h10.3l20.22,40.36c1.4,2.8,3.28,6.77,4.68,9.88h.16c-.31-4.59-.39-9.1-.39-12.68v-37.56h6.87v57.79h-10.23Z"/>
          <path class="cls-7" d="M689.64,504.38v.86c0,7.39,1.09,12.99,12.96,12.99,4.76,0,10.93-.54,14.99-1.24v5.6c-2.97.78-8.2,1.71-15.3,1.71-15.22,0-19.67-6.77-19.67-20.61v-3.27c0-13.45,6.01-21.08,18.19-21.08s18.42,7.54,18.42,21.93v3.11h-29.59ZM711.97,497.84c0-5.21-1.09-12.44-11.09-12.44s-11.16,7.23-11.16,12.44v.78h22.25v-.78Z"/>
          <path class="cls-7" d="M740.54,501.42l-14.36-21h7.88l10.62,15.55,10.38-15.55h7.81l-14.52,20.92,15.07,21.85h-7.88l-11.24-16.33-11.09,16.33h-7.88l15.22-21.78Z"/>
          <path class="cls-7" d="M787.77,524.29c-12.02,0-18.27-6.92-18.27-19.37v-6.22c0-12.44,6.25-19.37,18.27-19.37s18.35,6.92,18.35,19.37v6.22c0,12.44-6.25,19.37-18.35,19.37ZM799.09,498.7c0-9.26-3.43-13.22-11.32-13.22s-11.24,3.97-11.24,13.22v6.22c0,9.26,3.43,13.22,11.24,13.22s11.32-3.97,11.32-13.22v-6.22Z"/>
        </g>
      </g>
    </g>
    <g>
      <path class="cls-7" d="M36.31,523.36h-8.63v-42.85h13.46l8.06,33.69,7.99-33.69h13.32v42.85h-8.63v-28.98c0-.84.01-2,.03-3.51.01-1.5.02-2.66.02-3.47l-8.38,35.96h-8.99l-8.32-35.96c0,.81.01,1.97.03,3.47.02,1.51.03,2.67.03,3.51v28.98Z"/>
      <path class="cls-7" d="M87.22,480.24v7.66h-8.68v-7.66h8.68ZM87.22,491.67v31.69h-8.68v-31.69h8.68Z"/>
      <path class="cls-7" d="M123.56,514.05c-.23,1.88-1.23,3.79-3.04,5.73-2.81,3.07-6.73,4.62-11.78,4.62-4.16,0-7.85-1.3-11.03-3.9-3.19-2.6-4.78-6.82-4.78-12.68,0-5.48,1.44-9.68,4.31-12.61,2.88-2.93,6.6-4.39,11.19-4.39,2.72,0,5.18.5,7.37,1.49,2.18.99,3.98,2.55,5.4,4.69,1.29,1.88,2.11,4.05,2.5,6.53.22,1.45.3,3.55.27,6.28h-22.42c.12,3.18,1.15,5.4,3.09,6.68,1.18.8,2.61,1.19,4.27,1.19,1.76,0,3.19-.48,4.29-1.45.61-.52,1.14-1.25,1.6-2.18h8.75ZM115.09,504.35c-.14-2.19-.83-3.85-2.06-4.99-1.23-1.14-2.76-1.7-4.58-1.7-1.98,0-3.51.6-4.6,1.8-1.1,1.21-1.78,2.84-2.06,4.89h13.32Z"/>
      <path class="cls-7" d="M148.14,500.39c-.71-1.53-2.13-2.3-4.24-2.3-2.44,0-4.09.77-4.93,2.3-.45.87-.69,2.17-.69,3.9v19.07h-8.68v-31.63h8.32v4.62c1.06-1.65,2.06-2.83,3.01-3.52,1.66-1.24,3.82-1.86,6.46-1.86,2.51,0,4.53.54,6.06,1.6,1.24.99,2.18,2.25,2.83,3.81,1.12-1.86,2.51-3.23,4.17-4.1,1.76-.87,3.73-1.31,5.89-1.31,1.45,0,2.86.27,4.27.82,1.41.54,2.67,1.49,3.82,2.85.92,1.1,1.55,2.46,1.87,4.07.19,1.06.29,2.62.29,4.67l-.05,19.98h-8.78v-20.17c0-1.21-.21-2.19-.61-2.97-.76-1.48-2.16-2.21-4.21-2.21-2.37,0-4,.96-4.9,2.86-.46,1.01-.69,2.21-.69,3.64v18.86h-8.63v-18.86c0-1.88-.21-3.25-.61-4.1Z"/>
      <path class="cls-7" d="M202.28,524.2c-2.7,0-4.89-.52-6.53-1.57-.97-.62-2.04-1.7-3.18-3.25v3.98h-8.39v-42.8h8.54v15.24c1.08-1.48,2.27-2.6,3.57-3.38,1.55-.97,3.51-1.45,5.89-1.45,4.31,0,7.69,1.51,10.12,4.51s3.65,6.88,3.65,11.62-1.2,9.01-3.61,12.25c-2.4,3.23-5.76,4.85-10.06,4.85ZM206.96,507.97c0-2.24-.29-4.1-.9-5.58-1.15-2.79-3.24-4.19-6.31-4.19s-5.24,1.37-6.4,4.1c-.61,1.45-.9,3.33-.9,5.64,0,2.71.62,4.96,1.86,6.74,1.24,1.79,3.13,2.67,5.68,2.67,2.21,0,3.92-.86,5.15-2.59,1.22-1.72,1.83-3.99,1.83-6.8Z"/>
      <path class="cls-7" d="M238.54,499.31c-3.44,0-5.76,1.09-6.94,3.26-.66,1.22-.99,3.1-.99,5.64v15.15h-8.63v-31.69h8.18v5.53c1.32-2.11,2.48-3.55,3.45-4.33,1.61-1.3,3.69-1.94,6.26-1.94.16,0,.29,0,.4.01s.36.02.74.04v8.49c-.54-.05-1.02-.09-1.44-.11s-.77-.03-1.03-.03Z"/>
      <path class="cls-7" d="M273.35,495.69c2.77,3.34,4.15,7.31,4.15,11.88s-1.38,8.63-4.15,11.94c-2.77,3.3-6.96,4.96-12.59,4.96s-9.83-1.65-12.59-4.96c-2.77-3.3-4.14-7.28-4.14-11.94s1.37-8.54,4.14-11.88c2.77-3.36,6.96-5.04,12.59-5.04s9.83,1.68,12.59,5.04ZM260.73,497.66c-2.5,0-4.43.85-5.78,2.58-1.35,1.71-2.03,4.16-2.03,7.33s.68,5.63,2.03,7.35c1.35,1.72,3.29,2.59,5.78,2.59s4.43-.86,5.77-2.59,2.01-4.18,2.01-7.35-.67-5.62-2.01-7.33c-1.34-1.72-3.26-2.58-5.77-2.58Z"/>
      <path class="cls-7" d="M330.55,480.56v42.8h-8.32v-4.39c-1.22,1.88-2.62,3.25-4.18,4.1-1.56.85-3.5,1.28-5.83,1.28-3.83,0-7.05-1.5-9.66-4.49-2.62-3-3.92-6.84-3.92-11.53,0-5.41,1.29-9.66,3.86-12.77,2.58-3.1,6.02-4.64,10.32-4.64,1.99,0,3.75.42,5.3,1.26s2.79,2.02,3.75,3.51v-15.13h8.69ZM307.47,507.72c0,2.93.59,5.27,1.79,7.01,1.19,1.77,2.99,2.64,5.42,2.64s4.27-.87,5.52-2.61c1.26-1.75,1.9-4.01,1.9-6.78,0-3.87-1.02-6.65-3.04-8.31-1.24-1.01-2.69-1.52-4.33-1.52-2.5,0-4.33.92-5.51,2.75-1.17,1.83-1.75,4.1-1.75,6.81Z"/>
      <path class="cls-7" d="M366.37,514.05c-.23,1.88-1.23,3.79-3.04,5.73-2.81,3.07-6.73,4.62-11.78,4.62-4.16,0-7.85-1.3-11.03-3.9-3.19-2.6-4.78-6.82-4.78-12.68,0-5.48,1.44-9.68,4.31-12.61,2.88-2.93,6.6-4.39,11.19-4.39,2.72,0,5.18.5,7.37,1.49,2.18.99,3.98,2.55,5.4,4.69,1.29,1.88,2.11,4.05,2.5,6.53.22,1.45.3,3.55.27,6.28h-22.42c.12,3.18,1.15,5.4,3.09,6.68,1.18.8,2.61,1.19,4.27,1.19,1.76,0,3.19-.48,4.29-1.45.61-.52,1.14-1.25,1.6-2.18h8.75ZM357.9,504.35c-.14-2.19-.83-3.85-2.06-4.99-1.23-1.14-2.76-1.7-4.58-1.7-1.98,0-3.51.6-4.6,1.8-1.1,1.21-1.78,2.84-2.06,4.89h13.32Z"/>
    </g>
  </g>
  <g>
    <path class="cls-8" d="M952.18,19.22c-1.83-3.72-5.81-5.5-9.49-4.27l-338.76,113.2c-28.59-18.34-54.8-35.08-68.32-43.56-11.24-7.05-22.12-2.47-26.71,1.3l-159.25,127.75c-3.2,2.56-4.24,7.28-2.47,11.17,1.4,3.08,4.25,4.93,7.26,4.93.78,0,1.58-.13,2.36-.39l231.91-77.5-19.35-12.16-171.47,57.3,120.52-96.68c.48-.36,2.29-1.59,4.78-1.59,1.31,0,2.8.34,4.38,1.33,11.23,7.05,31.23,19.79,54.06,34.42h.04s21,13.46,21,13.46h-.03c48.88,31.39,102.25,65.83,110.19,71.07,18.99,12.54,34.76-1.21,35.53-1.9L950.28,30.29c2.95-2.73,3.74-7.35,1.9-11.07ZM738.04,203.37c-1.05.86-8.1,6.15-16.85.37-7.3-4.82-52.89-34.25-98.18-63.34l286.59-95.77-171.56,158.74Z"/>
    <g>
      <path class="cls-2" d="M49.62,286.33l2.09,8.36c9.19-6.48,18.8-10.03,32.17-10.03,23.61,0,35.94,12.33,35.94,38.44v64.76h-26.12v-61.84c0-14.42-5.64-21.73-17.13-21.73-7.31,0-15.04,2.09-22.77,6.48v77.09h-26.12v-98.61l21.94-2.92Z"/>
      <path class="cls-2" d="M180.76,284.66c31.13,0,45.96,16.09,45.96,50.98v8.98h-65.6c0,19.22,6.89,26.74,25.91,26.74,13.58,0,23.82-1.67,36.98-6.48l-3.55,19.43c-11.07,3.97-20.89,5.64-35.1,5.64-36.77,0-50.98-14.42-50.98-51.81s14.62-53.48,46.38-53.48ZM199.98,326.45c0-15.67-6.47-23.4-19.22-23.4s-19.64,7.73-19.64,23.4h38.86Z"/>
      <path class="cls-2" d="M260.41,286.96l21.1,32.17,20.47-32.17h23.61v5.85l-29.67,43.46,32.8,45.96v5.64h-25.07l-24.03-34.26-22.56,34.26h-24.44v-5.64l33.01-46.59-30.5-42.83v-5.85h25.28Z"/>
      <path class="cls-2" d="M429.88,337.31c0,36.56-15.04,52.65-49.3,52.65s-49.31-16.09-49.31-52.65,15.04-52.65,49.31-52.65,49.3,16.09,49.3,52.65ZM358.01,337.31c0,24.23,6.48,34.05,22.56,34.05s22.56-9.82,22.56-34.05-6.48-34.05-22.56-34.05-22.56,9.82-22.56,34.05Z"/>
      <path class="cls-2" d="M475,238.91v148.96h-17.76v-147.08l17.76-1.88Z"/>
      <path class="cls-2" d="M521.08,246.64v20.68h-19.22v-19.01l19.22-1.67ZM520.45,286.96v100.91h-17.76v-99.24l17.76-1.67Z"/>
      <path class="cls-2" d="M565.43,238.91v52.86c10.03-4.81,19.64-7.1,30.5-7.1,27.58,0,40.11,16.09,40.11,51.19,0,37.4-12.74,54.11-41.16,54.11-11.49,0-21.94-3.13-31.13-9.19l-1.04,7.1h-15.04v-147.08l17.76-1.88ZM565.43,368.44c8.15,5.64,16.08,7.73,26.74,7.73,17.76,0,25.49-11.7,25.49-39.9,0-26.74-7.52-38.02-25.7-38.02-9.19,0-17.13,1.88-26.53,6.27v63.93Z"/>
      <path class="cls-2" d="M673.81,286.75l1.88,10.45c6.68-8.36,15.46-12.53,26.32-12.53,2.72,0,4.81.21,6.69.83l-2.09,15.67c-1.46-.21-2.93-.42-5.22-.42-9.19,0-16.71,2.93-24.03,9.61v77.51h-17.76v-99.03l14.21-2.09Z"/>
      <path class="cls-2" d="M764.2,284.66c28.62,0,41.37,14.83,41.37,50.56v6.69h-66.64c.21,24.86,8.98,34.47,30.92,34.47,11.49,0,20.47-1.46,32.38-5.43l-2.51,14.21c-10.86,3.34-19.85,4.81-31.55,4.81-34.26,0-47.63-14.42-47.63-52.02s12.95-53.27,43.66-53.27ZM787.39,328.74c0-21.73-6.48-30.71-22.98-30.71-17.55,0-25.07,8.98-25.28,30.71h48.26Z"/>
    </g>
  </g>
</svg>