<?xml version="1.0" encoding="UTF-8"?>
<svg id="Capa_1" data-name="Capa 1" xmlns="http://www.w3.org/2000/svg" viewBox="0 0 430.98 97.02">
  <defs>
    <style>
      .cls-1 {
        fill: #7c7b7b;
      }

      .cls-2 {
        fill: #e29334;
      }
    </style>
  </defs>
  <path class="cls-2" d="M416.06,15.09c-.51-1.04-1.61-1.54-2.63-1.2l-94.07,31.77c-7.94-5.15-15.22-9.84-18.97-12.22-3.12-1.98-6.14-.69-7.42.36l-44.22,35.85c-.89.72-1.18,2.04-.69,3.14.39.87,1.18,1.38,2.02,1.38.22,0,.44-.04.66-.11l64.4-21.75-5.37-3.41-47.61,16.08,33.47-27.13c.13-.1.64-.45,1.33-.45.36,0,.78.1,1.22.37,3.12,1.98,8.67,5.55,15.01,9.66h.01s5.83,3.78,5.83,3.78h0c13.57,8.81,28.39,18.47,30.6,19.94,5.27,3.52,9.65-.34,9.87-.53l56.07-52.43c.82-.76,1.04-2.06.53-3.11ZM356.6,66.77c-.29.24-2.25,1.73-4.68.1-2.03-1.35-14.69-9.61-27.26-17.77l79.58-26.87-47.64,44.54Z"/>
  <g>
    <path class="cls-1" d="M20.73,45.09l.58,2.34c2.55-1.82,5.22-2.81,8.93-2.81,6.56,0,9.98,3.46,9.98,10.79v18.17h-7.25v-17.35c0-4.05-1.57-6.1-4.76-6.1-2.03,0-4.18.59-6.32,1.82v21.63h-7.25v-27.67l6.09-.82Z"/>
    <path class="cls-1" d="M57.14,44.62c8.64,0,12.76,4.51,12.76,14.3v2.52h-18.22c0,5.39,1.91,7.5,7.19,7.5,3.77,0,6.61-.47,10.27-1.82l-.99,5.45c-3.07,1.11-5.8,1.58-9.75,1.58-10.21,0-14.15-4.05-14.15-14.54s4.06-15.01,12.88-15.01ZM62.48,56.34c0-4.4-1.8-6.57-5.34-6.57s-5.45,2.17-5.45,6.57h10.79Z"/>
    <path class="cls-1" d="M79.26,45.26l5.86,9.03,5.69-9.03h6.56v1.64l-8.24,12.19,9.11,12.9v1.58h-6.96l-6.67-9.61-6.27,9.61h-6.79v-1.58l9.17-13.07-8.47-12.02v-1.64h7.02Z"/>
    <path class="cls-1" d="M126.32,59.39c0,10.26-4.18,14.77-13.69,14.77s-13.69-4.51-13.69-14.77,4.18-14.77,13.69-14.77,13.69,4.51,13.69,14.77ZM106.36,59.39c0,6.8,1.8,9.56,6.27,9.56s6.26-2.76,6.26-9.56-1.8-9.56-6.26-9.56-6.27,2.76-6.27,9.56Z"/>
    <path class="cls-1" d="M138.85,31.78v41.8h-4.93v-41.27l4.93-.53Z"/>
    <path class="cls-1" d="M151.64,33.95v5.8h-5.34v-5.33l5.34-.47ZM151.47,45.26v28.32h-4.93v-27.85l4.93-.47Z"/>
    <path class="cls-1" d="M163.96,31.78v14.83c2.78-1.35,5.45-1.99,8.47-1.99,7.66,0,11.14,4.51,11.14,14.36,0,10.49-3.54,15.18-11.43,15.18-3.19,0-6.09-.88-8.64-2.58l-.29,1.99h-4.18v-41.27l4.93-.53ZM163.96,68.13c2.26,1.58,4.47,2.17,7.43,2.17,4.93,0,7.08-3.28,7.08-11.2,0-7.5-2.09-10.67-7.14-10.67-2.55,0-4.76.53-7.37,1.76v17.94Z"/>
    <path class="cls-1" d="M194.05,45.21l.52,2.93c1.86-2.34,4.29-3.52,7.31-3.52.75,0,1.33.06,1.86.23l-.58,4.4c-.41-.06-.81-.12-1.45-.12-2.55,0-4.64.82-6.67,2.7v21.75h-4.93v-27.79l3.94-.59Z"/>
    <path class="cls-1" d="M219.15,44.62c7.95,0,11.49,4.16,11.49,14.19v1.88h-18.51c.06,6.98,2.49,9.67,8.59,9.67,3.19,0,5.69-.41,8.99-1.52l-.7,3.99c-3.02.94-5.51,1.35-8.76,1.35-9.51,0-13.23-4.05-13.23-14.6s3.6-14.95,12.12-14.95ZM225.59,56.99c0-6.1-1.8-8.62-6.38-8.62-4.87,0-6.96,2.52-7.02,8.62h13.4Z"/>
  </g>
</svg>