<?xml version="1.0" encoding="UTF-8"?>
<svg id="Capa_1" data-name="Capa 1" xmlns="http://www.w3.org/2000/svg" viewBox="0 0 2186.13 948.48">
  <defs>
    <style>
      .cls-1 {
        fill: #ef8f03;
      }
    </style>
  </defs>
  <path class="cls-1" d="M2153.06,90.4c-6.46-13.09-20.45-19.37-33.42-15.03L926.43,474.09c-100.7-64.59-193.01-123.55-240.65-153.43-39.59-24.84-77.93-8.69-94.1,4.58L30.77,775.21c-11.25,9.03-14.93,25.66-8.71,39.35,4.94,10.86,14.97,17.36,25.56,17.36,2.76,0,5.56-.44,8.32-1.37l816.86-272.96-68.15-42.82-603.97,201.82,424.5-340.55c1.68-1.26,8.08-5.6,16.83-5.6,4.6,0,9.86,1.2,15.42,4.69,39.57,24.82,109.99,69.72,190.43,121.24l.13-.03,73.95,47.42-.09.05c172.17,110.5,360.16,231.81,388.12,250.28,66.88,44.16,122.43-4.25,125.14-6.67l711.24-658.05c10.38-9.6,13.17-25.89,6.69-38.97ZM1398.78,739.02c-3.68,3.02-28.54,21.67-59.35,1.31-25.7-16.97-186.29-120.64-345.8-223.11l1009.45-337.32-604.3,559.11Z"/>
</svg>